HIERARCHY
ROOT Hips
{
	OFFSET -3.958830 18.904000 13.208200
	CHANNELS 6 Xposition Yposition Zposition Zrotation Yrotation Xrotation 
	JOINT LHipJoint
	{
		OFFSET 0.000000 0.000000 0.000000
		CHANNELS 3 Zrotation Yrotation Xrotation
		JOINT LeftUpLeg
		{
			OFFSET 1.800000 -1.400000 0.085000
			CHANNELS 3 Zrotation Yrotation Xrotation
			JOINT LeftLeg
			{
				OFFSET 2.215000 -6.000000 0.000000
				CHANNELS 3 Zrotation Yrotation Xrotation
				JOINT LeftFoot
				{
					OFFSET 2.500000 -6.900000 0.000000
					CHANNELS 3 Zrotation Yrotation Xrotation
					JOINT LeftToeBase
					{
						OFFSET 0.200000 -0.500000 1.950000
						CHANNELS 3 Zrotation Yrotation Xrotation
						End Site
						{
							OFFSET 0.000000 0.000000 0.000000
						}
					}
				}
			}
		}
	}
	JOINT RHipJoint
	{
		OFFSET 0.000000 0.000000 0.000000
		CHANNELS 3 Zrotation Yrotation Xrotation
		JOINT RightUpLeg
		{
			OFFSET -1.800000 -1.400000 0.085000
			CHANNELS 3 Zrotation Yrotation Xrotation
			JOINT RightLeg
			{
				OFFSET -2.215000 -6.000000 0.000000
				CHANNELS 3 Zrotation Yrotation Xrotation
				JOINT RightFoot
				{
					OFFSET -2.500000 -6.900000 0.000000
					CHANNELS 3 Zrotation Yrotation Xrotation
					JOINT RightToeBase
					{
						OFFSET -0.200000 -0.500000 1.950000
						CHANNELS 3 Zrotation Yrotation Xrotation
						End Site
						{
							OFFSET 0.000000 0.000000 0.000000
						}
					}
				}
			}
		}
	}
	JOINT LowerBack
	{
		OFFSET 0.000000 0.000000 0.000000
		CHANNELS 3 Zrotation Yrotation Xrotation
		JOINT Spine
		{
			OFFSET -0.087000 1.940000 -0.288900
			CHANNELS 3 Zrotation Yrotation Xrotation
			JOINT Spine1
			{
				OFFSET 0.000000 1.950000 0.060000
				CHANNELS 3 Zrotation Yrotation Xrotation
				JOINT Neck
				{
					OFFSET 0.000000 0.000000 0.000000
					CHANNELS 3 Zrotation Yrotation Xrotation
					JOINT Neck1
					{
						OFFSET 0.000000 1.600000 0.340000
						CHANNELS 3 Zrotation Yrotation Xrotation
						JOINT Head
						{
							OFFSET 0.000000 1.667000 -0.240000
							CHANNELS 3 Zrotation Yrotation Xrotation
							End Site
							{
								OFFSET 0.000000 0.000000 0.000000
							}
						}
					}
				}
				JOINT LeftShoulder
				{
					OFFSET 0.000000 0.000000 0.000000
					CHANNELS 3 Zrotation Yrotation Xrotation
					JOINT LeftArm
					{
						OFFSET 2.700000 1.550000 -0.730000
						CHANNELS 3 Zrotation Yrotation Xrotation
						JOINT LeftForeArm
						{
							OFFSET 5.450000 0.000000 0.000000
							CHANNELS 3 Zrotation Yrotation Xrotation
							JOINT LeftHand
							{
								OFFSET 3.450000 0.000000 0.000000
								CHANNELS 3 Zrotation Yrotation Xrotation
								JOINT LeftHandIndex1
								{
									OFFSET 0.750000 0.000000 0.000000
									CHANNELS 3 Zrotation Yrotation Xrotation
									End Site
									{
										OFFSET 0.000000 0.000000 0.000000
									}
								}
							}
						}
					}
				}
				JOINT RightShoulder
				{
					OFFSET 0.000000 0.000000 0.000000
					CHANNELS 3 Zrotation Yrotation Xrotation
					JOINT RightArm
					{
						OFFSET -2.700000 1.550000 -0.730000
						CHANNELS 3 Zrotation Yrotation Xrotation
						JOINT RightForeArm
						{
							OFFSET -5.450000 0.000000 0.000000
							CHANNELS 3 Zrotation Yrotation Xrotation
							JOINT RightHand
							{
								OFFSET -3.450000 0.000000 0.000000
								CHANNELS 3 Zrotation Yrotation Xrotation
								JOINT RightHandIndex1
								{
									OFFSET -0.750000 0.000000 0.000000
									CHANNELS 3 Zrotation Yrotation Xrotation
									End Site
									{
										OFFSET 0.000000 0.000000 0.000000
									}
								}
							}
						}
					}
				}
			}
		}
	}
}
MOTION
Frames: 14
Frame Time: 0.016667
0.105840 15.787170 -3.352600 -3.099724 -6.835793 15.677173 -15.246237 11.459408 3.319661 34.736840 -1.438562 -27.342399 -2.898950 11.157778 35.125302 -0.072919 8.147237 1.678468 0.572200 0.134120 0.417570 18.908782 -7.939778 4.507277 -16.514814 5.692287 -58.672353 -14.342527 -5.260741 54.705952 -1.110389 -7.765279 1.655595 0.001090 0.263610 0.335170 -4.531461 -2.745993 -8.651200 24.699157 -17.178425 25.680876 -17.318452 -10.835914 0.573902 5.287566 -13.816071 -10.624572 -32.435782 12.028942 23.262574 -6.075690 2.179700 -17.271450 -20.378906 -6.331338 1.167539 -56.901964 -9.429181 -8.351677 -23.833782 -33.435841 2.328261 -3.259160 3.137380 0.799720 -0.070660 0.186220 0.404110 9.886867 10.850657 7.424267 64.301569 -0.035199 -18.245817 38.056470 48.005333 9.461245 2.204454 -1.705424 -0.176390 0.247550 -0.226840 -0.045100 
0.136170 15.711840 -3.356460 -4.045202 -10.393546 15.575085 -15.177655 11.612416 2.891281 35.054636 -0.743373 -23.053287 -2.183949 10.467740 31.652620 -0.110182 7.690562 1.826619 0.590280 0.163550 0.437250 18.939830 -8.084324 4.663490 -16.612702 6.823984 -58.467162 -12.653149 -5.761202 54.298124 -1.090961 -7.640326 1.693982 0.012240 0.259530 0.362840 -4.711159 -2.378705 -8.465006 27.132139 -17.432324 24.027786 -19.246797 -10.832068 1.411194 5.625565 -13.796720 -10.352561 -31.789729 13.200420 22.798685 -6.726870 3.943420 -17.575450 -20.854469 -5.833022 0.923551 -54.018938 -7.763428 -7.625065 -17.310267 -27.436976 0.440941 -3.313312 3.071665 0.776180 -0.050280 0.198090 0.400180 9.475986 10.183703 7.407974 60.269665 -0.650875 -17.617090 39.909968 50.261502 11.120621 2.176505 -1.753877 -0.149490 0.230290 -0.231030 -0.044970 
0.153800 15.623540 -3.383450 -4.362988 -13.336876 15.646503 -15.157277 11.531833 2.658507 35.517731 -0.366606 -20.293325 -2.647705 10.817251 30.870352 -0.128230 7.809952 1.773423 0.597620 0.164410 0.422520 18.979891 -8.023812 4.866884 -17.727876 7.559781 -59.507980 -10.943708 -6.545214 54.872632 -1.097486 -7.772463 1.605996 0.040090 0.292280 0.394580 -4.861067 -2.087242 -8.390267 28.577151 -17.212523 22.276973 -19.897568 -10.527270 2.520980 5.130299 -13.968267 -10.397087 -32.012585 14.111482 21.906716 -5.350590 4.243050 -16.691060 -19.642148 -5.339179 1.072523 -51.746033 -6.687271 -5.832338 -12.142644 -20.439146 -0.690988 -3.417978 3.027299 0.764380 -0.022930 0.170950 0.387830 9.245673 9.763232 7.434979 55.551722 -1.538688 -16.813855 43.033914 54.691961 14.262120 2.125288 -1.842101 -0.154490 0.217050 -0.194090 -0.046980 
0.175620 15.539970 -3.433440 -4.041316 -15.114705 15.126518 -15.144212 11.467797 2.462064 35.445338 -0.286278 -18.557258 -2.810676 11.157769 31.342313 -0.141816 7.982254 1.732625 0.620140 0.190880 0.448080 19.010626 -8.005484 5.017204 -18.666556 7.675585 -60.703548 -10.935037 -6.679955 55.857211 -1.126652 -7.978660 1.536261 0.090220 0.329930 0.391870 -4.966733 -1.849160 -8.334988 29.050783 -17.673290 21.520266 -20.409286 -10.918722 3.701695 4.641560 -14.128763 -10.188874 -31.354224 14.631435 20.283740 -5.042520 4.732440 -17.143930 -18.655726 -4.652286 1.443349 -47.927601 -4.796245 -4.874641 -9.542994 -16.688499 -0.999716 -3.500481 2.953830 0.750530 0.012790 0.149460 0.392130 9.263270 9.099329 7.088486 49.584802 -1.321878 -14.884397 47.955646 60.057649 19.245945 2.093588 -1.907708 -0.184500 0.259270 -0.194040 -0.056160 
0.204430 15.489370 -3.483670 -3.890835 -15.824632 13.733940 -15.124554 11.499057 2.340318 35.326326 -0.316899 -16.897506 -3.043862 11.322883 31.482812 -0.164447 8.093623 1.709073 0.647060 0.222240 0.489160 19.017210 -8.100874 5.012431 -18.876569 7.576888 -60.574123 -11.744360 -6.365974 56.608389 -1.170593 -8.110509 1.486679 0.129230 0.348540 0.397720 -5.014442 -1.701295 -8.271963 29.350789 -18.547395 22.137509 -20.381703 -11.636216 4.869490 4.220167 -14.250801 -10.092062 -31.187864 15.166243 19.383110 -5.433730 5.136630 -18.652380 -17.653108 -4.350356 1.926763 -43.934498 -3.619985 -3.652024 -6.956081 -12.699108 -1.213299 -3.570386 2.866881 0.761660 0.029780 0.158370 0.391090 9.211389 8.675471 6.712068 43.158645 -0.348225 -12.492226 55.294174 65.891217 26.503551 2.117567 -1.911298 -0.204500 0.309280 -0.193270 -0.066630 
0.236690 15.457510 -3.537410 -4.172904 -16.477635 12.735649 -15.111525 11.555364 2.254955 35.175236 -0.257764 -15.631622 -3.100721 11.371024 31.401535 -0.154503 8.112914 1.684248 0.684760 0.278930 0.510280 19.012709 -8.173021 5.004451 -18.686998 7.842357 -60.169366 -12.017996 -6.078101 56.453859 -1.170150 -8.107699 1.463492 0.167380 0.336040 0.436990 -5.032679 -1.620851 -8.209602 29.874906 -19.250353 22.473639 -20.023614 -12.119385 6.121947 3.952052 -14.207046 -10.433349 -30.934036 16.090223 18.698887 -6.146790 6.424880 -17.919120 -17.541584 -5.203700 2.975050 -38.742490 -1.788175 -2.428523 -6.025685 -8.394737 -1.243875 -3.627771 2.916432 0.718820 0.063140 0.160440 0.388600 9.835673 9.410799 6.628624 34.865542 0.844045 -9.700742 64.999561 72.334071 36.385780 2.276157 -1.815309 -0.169790 0.261490 -0.204890 -0.067110 
0.255270 15.476900 -3.609630 -3.965138 -15.401314 11.144404 -15.084143 11.801997 2.158414 34.400845 -0.454668 -14.679119 -2.343537 10.582243 30.198753 -0.180229 7.815009 1.757243 0.691490 0.297720 0.477680 18.981291 -8.373176 4.848394 -18.728457 7.288623 -58.406800 -11.350829 -6.311497 55.663617 -1.135437 -8.042077 1.455817 0.163610 0.337140 0.517310 -4.971714 -1.758497 -8.093736 29.651766 -19.727029 23.633221 -18.637955 -12.771757 7.085835 3.482367 -14.284290 -10.942453 -31.496522 16.178328 18.165165 -6.600870 6.507040 -16.998510 -16.046260 -5.659589 3.802176 -34.478246 -1.591835 -1.061459 -6.396306 -4.400526 -1.299809 -3.708773 3.009581 0.663690 0.103650 0.159050 0.380010 9.611106 9.739373 6.642685 28.196823 1.595380 -7.265869 82.945709 77.861501 51.996252 2.932403 -0.798308 -0.099490 0.182350 -0.177950 -0.044190 
0.261110 15.529880 -3.676200 -3.649915 -13.680936 10.187769 -15.031994 11.894383 2.152647 33.885116 -0.773686 -14.390767 -2.237642 9.829096 27.952589 -0.228914 7.473233 1.903466 0.615630 0.228680 0.409280 18.983515 -8.661135 4.602660 -18.980817 6.257842 -56.305887 -10.307772 -6.673190 53.526377 -1.020485 -7.743225 1.554532 0.129510 0.410780 0.517820 -4.999751 -1.602662 -7.968940 30.470098 -19.678572 23.187630 -18.253604 -12.922953 8.163488 3.079840 -14.343019 -11.424815 -31.786225 15.721901 18.356846 -6.303840 6.168720 -15.158120 -13.354506 -6.644474 5.079124 -29.991765 -2.019548 0.277706 -5.629009 -0.916164 -1.309140 -3.792606 2.987504 0.623310 0.154100 0.116430 0.374060 8.010947 10.934719 6.127088 25.286374 0.040464 -10.490745 105.599467 73.716055 70.721452 3.017370 0.109913 -0.118140 0.204540 -0.132140 -0.020360 
0.263690 15.628200 -3.754620 -2.856166 -11.945160 9.360038 -14.997262 12.125959 2.150923 32.590111 -1.095437 -14.760678 -1.701327 8.915176 26.141236 -0.208102 6.967522 2.065317 0.605870 0.234170 0.362340 18.951076 -8.902847 4.373588 -19.830007 5.048065 -54.002851 -8.548516 -7.161474 50.742769 -0.915410 -7.353189 1.677578 0.084210 0.400020 0.555290 -4.938860 -1.752451 -7.867642 29.266941 -18.964317 23.325542 -16.751617 -12.751254 9.178820 2.637667 -14.203445 -12.470801 -32.317325 15.754569 19.531262 -5.410130 6.263160 -13.253200 -10.933254 -8.265821 6.334089 -25.169561 -2.407185 1.095606 -8.277472 1.778699 -1.514626 -3.774052 3.101843 0.572870 0.155930 0.122590 0.383910 6.731222 12.798967 6.594303 22.965540 -1.602094 -12.092382 119.148229 70.560882 85.032742 2.461092 -0.579408 -0.041460 0.122590 -0.138710 0.021070 
0.264670 15.765940 -3.842610 -2.901058 -9.677301 9.841559 -15.008741 12.280421 2.378144 32.258422 -1.389171 -17.077908 -1.245008 8.185182 24.371541 -0.219129 6.601658 2.164318 0.460750 0.050950 0.281970 18.892552 -9.019489 4.095324 -19.728049 4.244374 -51.548584 -6.600032 -7.509752 46.520245 -0.707577 -6.714487 1.887134 -0.048270 0.418470 0.580350 -4.788469 -2.045336 -7.844212 28.990442 -18.264426 22.476901 -15.318807 -12.354522 9.524708 2.991119 -13.646093 -13.539593 -31.706893 15.334981 22.061594 -6.653630 7.346260 -9.255220 -10.641067 -10.159223 7.012429 -18.641716 -2.608690 1.570313 -12.326049 4.320963 -2.063624 -3.813849 3.148759 0.541990 0.196720 0.073300 0.316460 5.809437 14.770227 7.771365 21.660568 -2.786486 -12.106215 127.113505 68.910284 93.384635 2.267883 -0.974837 -0.035210 0.030490 -0.057910 0.010910 
0.262130 15.953510 -3.950670 -3.052635 -7.934008 9.852634 -14.997562 12.410704 2.671531 32.006759 -1.590613 -19.217868 -1.356113 7.782140 23.252899 -0.226860 6.401872 2.215020 0.349700 -0.086010 0.216790 18.836917 -9.254600 3.726975 -19.309758 3.834393 -47.726395 -3.846866 -7.453627 40.224133 -0.477983 -5.696573 2.245936 -0.158970 0.452910 0.601940 -4.690351 -2.119041 -7.794097 28.606721 -17.372918 23.012056 -13.896413 -11.704701 10.086466 2.964957 -13.458357 -14.565392 -32.365448 14.888830 23.990579 -7.367160 7.106370 -7.840790 -8.312272 -11.155128 7.705712 -14.430162 -2.797883 1.781170 -12.727436 2.336835 -1.788760 -3.818132 3.121256 0.545150 0.217730 0.053050 0.264580 3.697670 16.054490 8.541629 22.611279 -1.731128 -12.088332 128.288622 68.151025 93.311775 2.284215 -0.982833 -0.028780 0.011540 0.023250 0.018370 
0.244840 16.155150 -4.073610 -2.577301 -6.916227 11.202612 -15.012105 12.478528 3.015061 30.875806 -1.955153 -22.806777 -1.827928 7.506503 22.936525 -0.232278 6.158097 2.259655 0.263660 -0.196930 0.169810 18.773372 -9.280198 3.570446 -20.131788 3.526572 -45.130277 -0.029630 -7.283799 32.578366 -0.281065 -4.585186 2.632453 -0.266230 0.437670 0.610690 -4.563711 -2.347980 -7.862995 26.833241 -15.419527 23.132773 -12.216112 -10.260278 9.560954 3.036106 -12.943280 -15.842164 -33.191488 15.351530 27.473660 -6.820380 7.238450 -6.619950 -6.469410 -12.624395 8.125351 -9.539163 -3.025872 1.738634 -16.576325 -0.477660 -1.504737 -3.731213 3.135553 0.593010 0.186080 0.072670 0.215080 1.826753 17.960448 9.751848 25.245496 -0.036873 -11.797733 124.092567 67.993556 86.920627 2.464235 -0.811431 -0.016480 -0.023600 0.079960 0.019050 
0.217610 16.372160 -4.206960 -2.106895 -7.131229 12.709298 -15.041698 12.479474 3.396196 29.793074 -2.229422 -25.810751 -3.361653 7.666013 22.654582 -0.274134 6.118405 2.288622 0.200020 -0.276820 0.137410 18.697832 -9.248148 3.470201 -19.962020 3.946751 -42.709396 2.178937 -6.034431 24.505187 -0.114031 -3.409940 3.077612 -0.299730 0.464170 0.539970 -4.414463 -2.519374 -7.979975 24.452483 -12.522848 23.697242 -9.669165 -7.936924 8.936182 2.554769 -12.806471 -16.748335 -34.959271 15.546161 30.067662 -5.620540 6.168160 -5.681350 -4.394209 -13.407089 8.293535 -6.975179 -3.713330 1.735056 -16.666874 -6.496784 -0.275790 -3.659400 3.068990 0.646680 0.159700 0.054290 0.199730 0.863207 19.672057 10.586941 26.397822 2.067454 -10.789316 118.876075 67.754813 79.446600 2.632896 -0.679301 -0.086000 0.056550 0.120050 0.002360 
0.188500 16.574620 -4.340580 -1.408582 -7.968133 14.415337 -15.122028 12.305907 3.920792 29.056797 -2.678338 -29.488572 -6.311900 8.554241 23.821402 -0.270132 6.427823 2.183772 0.228560 -0.254940 0.167160 18.608897 -9.073531 3.406616 -19.841861 4.291867 -40.352956 4.084384 -4.724896 16.484226 -0.046135 -2.515211 3.414983 -0.274960 0.428260 0.480650 -4.198993 -2.700911 -8.215317 21.207860 -9.122186 24.335178 -6.731358 -5.161771 8.201030 1.869491 -12.701808 -17.188417 -36.414078 15.605161 32.154181 -4.583530 5.109520 -6.939640 -2.453331 -13.781487 7.887252 -5.007997 -5.708347 1.664811 -16.427401 -12.473437 0.956807 -3.557241 3.042506 0.715670 0.096340 0.083390 0.219660 0.353949 21.142810 11.314476 27.814694 4.477444 -9.304960 112.364425 67.391072 70.681764 2.779676 -0.705245 -0.128450 0.119750 0.094560 -0.022200 
